<svg width="267" height="310" viewBox="0 0 267 310" fill="none" xmlns="http://www.w3.org/2000/svg">
<path d="M306.641 133.855V233.167C306.641 284.122 276.525 309.299 239.037 309.299H221.978C182.384 309.299 153.321 284.122 153.321 233.167V185.209C153.321 170.622 140.895 158.633 125.31 158.633H80.2405C27.5893 158.633 0 131.057 0 93.4908L0 85.8975C0 49.7296 27.5893 21.3548 80.2405 21.3548H125.31C140.684 21.3548 153.321 9.56521 153.321 -5.22168V-52.18C153.321 -102.535 182.384 -128.312 221.978 -128.313H239.037C277.156 -128.313 306.641 -102.735 306.641 -52.18V134.055V133.855Z" fill="#DEEBFD"/>
</svg>
