<svg width="358" height="96" viewBox="0 0 358 96" fill="none" xmlns="http://www.w3.org/2000/svg">
<path d="M18.0203 62.72C15.6603 62.72 13.3803 62.28 11.1803 61.4C8.98031 60.48 7.10031 59.2 5.54031 57.56C3.98031 55.88 2.96031 53.88 2.48031 51.56L10.7003 48.8C11.3003 50.72 12.2603 52.12 13.5803 53C14.9003 53.88 16.3803 54.32 18.0203 54.32C19.4203 54.32 20.6403 54.04 21.6803 53.48C22.7203 52.88 23.5203 52.06 24.0803 51.02C24.6803 49.94 24.9803 48.7 24.9803 47.3C24.9803 45.9 24.6803 44.68 24.0803 43.64C23.5203 42.6 22.7203 41.8 21.6803 41.24C20.6403 40.64 19.4203 40.34 18.0203 40.34C16.5803 40.34 15.3003 40.66 14.1803 41.3C13.0603 41.9 12.2403 42.84 11.7203 44.12L4.10031 42.32L7.70031 17.3H32.6603V25.1H11.4803L14.9603 20.9L12.5003 39.5L9.98031 37.28C10.9803 35.64 12.2403 34.44 13.7603 33.68C15.3203 32.92 17.3203 32.54 19.7603 32.54C22.7603 32.54 25.3403 33.18 27.5003 34.46C29.6603 35.7 31.3203 37.42 32.4803 39.62C33.6803 41.82 34.2803 44.38 34.2803 47.3C34.2803 50.22 33.5603 52.86 32.1203 55.22C30.7203 57.54 28.8003 59.38 26.3603 60.74C23.9203 62.06 21.1403 62.72 18.0203 62.72ZM44.9158 62V53H53.9158V62H44.9158ZM82.668 62.72C79.108 62.72 75.968 61.76 73.248 59.84C70.568 57.92 68.468 55.22 66.948 51.74C65.428 48.26 64.668 44.22 64.668 39.62C64.668 34.98 65.408 30.94 66.888 27.5C68.408 24.06 70.508 21.38 73.188 19.46C75.908 17.54 79.048 16.58 82.608 16.58C86.248 16.58 89.408 17.54 92.088 19.46C94.808 21.38 96.908 24.08 98.388 27.56C99.908 31 100.668 35.02 100.668 39.62C100.668 44.22 99.908 48.26 98.388 51.74C96.908 55.18 94.808 57.88 92.088 59.84C89.408 61.76 86.268 62.72 82.668 62.72ZM82.728 54.32C84.568 54.32 86.128 53.74 87.408 52.58C88.688 51.42 89.668 49.74 90.348 47.54C91.028 45.34 91.368 42.7 91.368 39.62C91.368 36.54 91.028 33.92 90.348 31.76C89.668 29.56 88.668 27.88 87.348 26.72C86.068 25.56 84.488 24.98 82.608 24.98C80.768 24.98 79.208 25.56 77.928 26.72C76.648 27.88 75.668 29.56 74.988 31.76C74.308 33.92 73.968 36.54 73.968 39.62C73.968 42.66 74.308 45.28 74.988 47.48C75.668 49.68 76.648 51.38 77.928 52.58C79.248 53.74 80.848 54.32 82.728 54.32Z" fill="#4285F4"/>
<path d="M11.3603 77.2875C11.623 76.7588 12.377 76.7588 12.6397 77.2875L14.7847 81.6046C14.8887 81.8139 15.0885 81.9591 15.3198 81.9934L20.0884 82.6993C20.6723 82.7857 20.9054 83.5029 20.4838 83.916L17.0408 87.2901C16.8738 87.4537 16.7975 87.6887 16.8364 87.9192L17.6386 92.6726C17.7368 93.2546 17.1268 93.6979 16.6036 93.4246L12.3307 91.1927C12.1235 91.0845 11.8765 91.0845 11.6693 91.1927L7.39641 93.4246C6.87322 93.6979 6.26316 93.2546 6.36139 92.6726L7.16361 87.9192C7.20251 87.6887 7.12617 87.4537 6.95923 87.2901L3.51621 83.916C3.09463 83.5029 3.32765 82.7857 3.91156 82.6993L8.68025 81.9934C8.91147 81.9591 9.11132 81.8139 9.21533 81.6046L11.3603 77.2875Z" fill="#F9BC15"/>
<path d="M31.3603 77.2875C31.623 76.7588 32.377 76.7588 32.6397 77.2875L34.7847 81.6046C34.8887 81.8139 35.0885 81.9591 35.3198 81.9934L40.0884 82.6993C40.6723 82.7857 40.9054 83.5029 40.4838 83.916L37.0408 87.2901C36.8738 87.4537 36.7975 87.6887 36.8364 87.9192L37.6386 92.6726C37.7368 93.2546 37.1268 93.6979 36.6036 93.4246L32.3307 91.1927C32.1235 91.0845 31.8765 91.0845 31.6693 91.1927L27.3964 93.4246C26.8732 93.6979 26.2632 93.2546 26.3614 92.6726L27.1636 87.9192C27.2025 87.6887 27.1262 87.4537 26.9592 87.2901L23.5162 83.916C23.0946 83.5029 23.3277 82.7857 23.9116 82.6993L28.6802 81.9934C28.9115 81.9591 29.1113 81.8139 29.2153 81.6046L31.3603 77.2875Z" fill="#F9BC15"/>
<path d="M51.3603 77.2875C51.623 76.7588 52.377 76.7588 52.6397 77.2875L54.7847 81.6046C54.8887 81.8139 55.0885 81.9591 55.3198 81.9934L60.0884 82.6993C60.6723 82.7857 60.9054 83.5029 60.4838 83.916L57.0408 87.2901C56.8738 87.4537 56.7975 87.6887 56.8364 87.9192L57.6386 92.6726C57.7368 93.2546 57.1268 93.6979 56.6036 93.4246L52.3307 91.1927C52.1235 91.0845 51.8765 91.0845 51.6693 91.1927L47.3964 93.4246C46.8732 93.6979 46.2632 93.2546 46.3614 92.6726L47.1636 87.9192C47.2025 87.6887 47.1262 87.4537 46.9592 87.2901L43.5162 83.916C43.0946 83.5029 43.3277 82.7857 43.9116 82.6993L48.6802 81.9934C48.9115 81.9591 49.1113 81.8139 49.2153 81.6046L51.3603 77.2875Z" fill="#F9BC15"/>
<path d="M71.3603 77.2875C71.623 76.7588 72.377 76.7588 72.6397 77.2875L74.7847 81.6046C74.8887 81.8139 75.0885 81.9591 75.3198 81.9934L80.0884 82.6993C80.6723 82.7857 80.9054 83.5029 80.4838 83.916L77.0408 87.2901C76.8738 87.4537 76.7975 87.6887 76.8364 87.9192L77.6386 92.6726C77.7368 93.2546 77.1268 93.6979 76.6036 93.4246L72.3307 91.1927C72.1235 91.0845 71.8765 91.0845 71.6693 91.1927L67.3964 93.4246C66.8732 93.6979 66.2632 93.2546 66.3614 92.6726L67.1636 87.9192C67.2025 87.6887 67.1262 87.4537 66.9592 87.2901L63.5162 83.916C63.0946 83.5029 63.3277 82.7857 63.9116 82.6993L68.6802 81.9934C68.9115 81.9591 69.1113 81.8139 69.2153 81.6046L71.3603 77.2875Z" fill="#F9BC15"/>
<path d="M91.3603 77.2875C91.623 76.7588 92.377 76.7588 92.6397 77.2875L94.7847 81.6046C94.8887 81.8139 95.0885 81.9591 95.3198 81.9934L100.088 82.6993C100.672 82.7857 100.905 83.5029 100.484 83.916L97.0408 87.2901C96.8738 87.4537 96.7975 87.6887 96.8364 87.9192L97.6386 92.6726C97.7368 93.2546 97.1268 93.6979 96.6036 93.4246L92.3307 91.1927C92.1235 91.0845 91.8765 91.0845 91.6693 91.1927L87.3964 93.4246C86.8732 93.6979 86.2632 93.2546 86.3614 92.6726L87.1636 87.9192C87.2025 87.6887 87.1262 87.4537 86.9592 87.2901L83.5162 83.916C83.0946 83.5029 83.3277 82.7857 83.9116 82.6993L88.6802 81.9934C88.9115 81.9591 89.1113 81.8139 89.2153 81.6046L91.3603 77.2875Z" fill="#F9BC15"/>
<path d="M204.094 48.7324C204.094 46.4473 203.889 44.25 203.508 42.1406H173.156V54.6211H190.5C189.738 58.6348 187.453 62.0332 184.025 64.3184V72.4336H194.484C200.578 66.8086 204.094 58.5469 204.094 48.7324Z" fill="#4285F4"/>
<path d="M173.156 80.2266C181.857 80.2266 189.152 77.3555 194.484 72.4336L184.025 64.3184C181.154 66.252 177.492 67.4238 173.156 67.4238C164.777 67.4238 157.658 61.7695 155.109 54.1523H144.387V62.4727C149.689 72.9902 160.559 80.2266 173.156 80.2266Z" fill="#34A853"/>
<path d="M155.109 54.123C154.465 52.1895 154.084 50.1387 154.084 48C154.084 45.8613 154.465 43.8105 155.109 41.877V33.5566H144.387C142.189 37.8926 140.93 42.7852 140.93 48C140.93 53.2148 142.189 58.1074 144.387 62.4434L152.736 55.9395L155.109 54.123Z" fill="#FBBC05"/>
<path d="M173.156 28.6055C177.902 28.6055 182.121 30.2461 185.49 33.4102L194.719 24.1816C189.123 18.9668 181.857 15.7734 173.156 15.7734C160.559 15.7734 149.689 23.0098 144.387 33.5566L155.109 41.877C157.658 34.2598 164.777 28.6055 173.156 28.6055Z" fill="#EA4335"/>
<path d="M241.792 51.432C239.872 51.432 238.096 51.084 236.464 50.388C234.832 49.692 233.404 48.72 232.18 47.472C230.956 46.224 229.996 44.76 229.3 43.08C228.628 41.4 228.292 39.564 228.292 37.572C228.292 35.58 228.616 33.744 229.264 32.064C229.936 30.36 230.872 28.896 232.072 27.672C233.296 26.424 234.724 25.464 236.356 24.792C237.988 24.096 239.764 23.748 241.684 23.748C243.604 23.748 245.32 24.072 246.832 24.72C248.368 25.368 249.664 26.232 250.72 27.312C251.776 28.368 252.532 29.532 252.988 30.804L248.632 32.892C248.128 31.5 247.276 30.372 246.076 29.508C244.876 28.644 243.412 28.212 241.684 28.212C240.004 28.212 238.516 28.608 237.22 29.4C235.948 30.192 234.952 31.284 234.232 32.676C233.536 34.068 233.188 35.7 233.188 37.572C233.188 39.444 233.548 41.088 234.268 42.504C235.012 43.896 236.032 44.988 237.328 45.78C238.624 46.572 240.112 46.968 241.792 46.968C243.16 46.968 244.42 46.704 245.572 46.176C246.724 45.624 247.648 44.856 248.344 43.872C249.04 42.864 249.388 41.676 249.388 40.308V38.256L251.62 40.2H241.684V36.06H254.284V38.76C254.284 40.824 253.936 42.648 253.24 44.232C252.544 45.816 251.596 47.148 250.396 48.228C249.22 49.284 247.888 50.088 246.4 50.64C244.912 51.168 243.376 51.432 241.792 51.432ZM267.338 51.432C265.418 51.432 263.666 50.988 262.082 50.1C260.522 49.212 259.274 48 258.338 46.464C257.426 44.928 256.97 43.176 256.97 41.208C256.97 39.24 257.426 37.488 258.338 35.952C259.274 34.416 260.522 33.204 262.082 32.316C263.642 31.428 265.394 30.984 267.338 30.984C269.258 30.984 270.998 31.428 272.558 32.316C274.118 33.204 275.354 34.416 276.266 35.952C277.202 37.464 277.67 39.216 277.67 41.208C277.67 43.176 277.202 44.928 276.266 46.464C275.33 48 274.082 49.212 272.522 50.1C270.962 50.988 269.234 51.432 267.338 51.432ZM267.338 47.112C268.394 47.112 269.318 46.86 270.11 46.356C270.926 45.852 271.562 45.156 272.018 44.268C272.498 43.356 272.738 42.336 272.738 41.208C272.738 40.056 272.498 39.048 272.018 38.184C271.562 37.296 270.926 36.6 270.11 36.096C269.318 35.568 268.394 35.304 267.338 35.304C266.258 35.304 265.31 35.568 264.494 36.096C263.678 36.6 263.03 37.296 262.55 38.184C262.094 39.048 261.866 40.056 261.866 41.208C261.866 42.336 262.094 43.356 262.55 44.268C263.03 45.156 263.678 45.852 264.494 46.356C265.31 46.86 266.258 47.112 267.338 47.112ZM290.823 51.432C288.903 51.432 287.151 50.988 285.567 50.1C284.007 49.212 282.759 48 281.823 46.464C280.911 44.928 280.455 43.176 280.455 41.208C280.455 39.24 280.911 37.488 281.823 35.952C282.759 34.416 284.007 33.204 285.567 32.316C287.127 31.428 288.879 30.984 290.823 30.984C292.743 30.984 294.483 31.428 296.043 32.316C297.603 33.204 298.839 34.416 299.751 35.952C300.687 37.464 301.155 39.216 301.155 41.208C301.155 43.176 300.687 44.928 299.751 46.464C298.815 48 297.567 49.212 296.007 50.1C294.447 50.988 292.719 51.432 290.823 51.432ZM290.823 47.112C291.879 47.112 292.803 46.86 293.595 46.356C294.411 45.852 295.047 45.156 295.503 44.268C295.983 43.356 296.223 42.336 296.223 41.208C296.223 40.056 295.983 39.048 295.503 38.184C295.047 37.296 294.411 36.6 293.595 36.096C292.803 35.568 291.879 35.304 290.823 35.304C289.743 35.304 288.795 35.568 287.979 36.096C287.163 36.6 286.515 37.296 286.035 38.184C285.579 39.048 285.351 40.056 285.351 41.208C285.351 42.336 285.579 43.356 286.035 44.268C286.515 45.156 287.163 45.852 287.979 46.356C288.795 46.86 289.743 47.112 290.823 47.112ZM314.235 58.92C312.771 58.92 311.415 58.68 310.167 58.2C308.919 57.72 307.839 57.048 306.927 56.184C306.039 55.344 305.391 54.348 304.983 53.196L309.375 51.54C309.663 52.452 310.227 53.184 311.067 53.736C311.931 54.312 312.987 54.6 314.235 54.6C315.195 54.6 316.035 54.42 316.755 54.06C317.499 53.7 318.075 53.172 318.483 52.476C318.891 51.804 319.095 50.988 319.095 50.028V45.564L319.995 46.644C319.323 47.82 318.423 48.708 317.295 49.308C316.167 49.908 314.883 50.208 313.443 50.208C311.619 50.208 309.987 49.788 308.547 48.948C307.107 48.108 305.979 46.956 305.163 45.492C304.347 44.028 303.939 42.384 303.939 40.56C303.939 38.712 304.347 37.068 305.163 35.628C305.979 34.188 307.095 33.06 308.511 32.244C309.927 31.404 311.535 30.984 313.335 30.984C314.799 30.984 316.083 31.296 317.187 31.92C318.315 32.52 319.251 33.396 319.995 34.548L319.347 35.736V31.416H323.811V50.028C323.811 51.732 323.391 53.256 322.551 54.6C321.735 55.944 320.607 57 319.167 57.768C317.751 58.536 316.107 58.92 314.235 58.92ZM314.019 45.852C315.027 45.852 315.903 45.636 316.647 45.204C317.415 44.748 318.015 44.124 318.447 43.332C318.879 42.54 319.095 41.628 319.095 40.596C319.095 39.588 318.867 38.688 318.411 37.896C317.979 37.08 317.379 36.444 316.611 35.988C315.867 35.532 315.003 35.304 314.019 35.304C313.035 35.304 312.147 35.532 311.355 35.988C310.563 36.444 309.939 37.08 309.483 37.896C309.051 38.688 308.835 39.588 308.835 40.596C308.835 41.604 309.051 42.504 309.483 43.296C309.939 44.088 310.551 44.712 311.319 45.168C312.111 45.624 313.011 45.852 314.019 45.852ZM328.216 51V23.748H332.932V51H328.216ZM346.574 51.432C344.558 51.432 342.794 50.976 341.282 50.064C339.77 49.152 338.594 47.916 337.754 46.356C336.914 44.796 336.494 43.068 336.494 41.172C336.494 39.204 336.914 37.464 337.754 35.952C338.618 34.416 339.782 33.204 341.246 32.316C342.734 31.428 344.39 30.984 346.214 30.984C347.75 30.984 349.094 31.236 350.246 31.74C351.422 32.244 352.418 32.94 353.234 33.828C354.05 34.716 354.674 35.736 355.106 36.888C355.538 38.016 355.754 39.24 355.754 40.56C355.754 40.896 355.73 41.244 355.682 41.604C355.658 41.964 355.598 42.276 355.502 42.54H340.382V38.94H352.838L350.606 40.632C350.822 39.528 350.762 38.544 350.426 37.68C350.114 36.816 349.586 36.132 348.842 35.628C348.122 35.124 347.246 34.872 346.214 34.872C345.23 34.872 344.354 35.124 343.586 35.628C342.818 36.108 342.23 36.828 341.822 37.788C341.438 38.724 341.294 39.864 341.39 41.208C341.294 42.408 341.45 43.476 341.858 44.412C342.29 45.324 342.914 46.032 343.73 46.536C344.57 47.04 345.53 47.292 346.61 47.292C347.69 47.292 348.602 47.064 349.346 46.608C350.114 46.152 350.714 45.54 351.146 44.772L354.962 46.644C354.578 47.58 353.978 48.408 353.162 49.128C352.346 49.848 351.374 50.412 350.246 50.82C349.142 51.228 347.918 51.432 346.574 51.432Z" fill="#6A6A6A"/>
<path d="M246.19 79V65.59H251.824C252.58 65.59 253.234 65.734 253.786 66.022C254.35 66.298 254.782 66.688 255.082 67.192C255.394 67.696 255.55 68.284 255.55 68.956C255.55 69.652 255.376 70.27 255.028 70.81C254.692 71.338 254.206 71.74 253.57 72.016L253.552 71.584C254.08 71.776 254.53 72.046 254.902 72.394C255.286 72.742 255.58 73.15 255.784 73.618C255.988 74.074 256.09 74.566 256.09 75.094C256.09 76.294 255.706 77.248 254.938 77.956C254.182 78.652 253.15 79 251.842 79H246.19ZM247.63 77.65H251.842C252.694 77.65 253.372 77.428 253.876 76.984C254.392 76.528 254.65 75.904 254.65 75.112C254.65 74.332 254.392 73.714 253.876 73.258C253.372 72.79 252.694 72.556 251.842 72.556H247.63V77.65ZM247.63 71.26H251.716C252.436 71.26 253.012 71.05 253.444 70.63C253.888 70.21 254.11 69.67 254.11 69.01C254.11 68.338 253.888 67.828 253.444 67.48C253.012 67.12 252.436 66.94 251.716 66.94H247.63V71.26ZM262.865 79.216C261.965 79.216 261.149 79 260.417 78.568C259.697 78.124 259.127 77.518 258.707 76.75C258.287 75.982 258.077 75.112 258.077 74.14C258.077 73.168 258.281 72.31 258.689 71.566C259.097 70.81 259.649 70.216 260.345 69.784C261.053 69.352 261.845 69.136 262.721 69.136C263.417 69.136 264.035 69.268 264.575 69.532C265.127 69.784 265.595 70.132 265.979 70.576C266.363 71.008 266.657 71.5 266.861 72.052C267.065 72.592 267.167 73.15 267.167 73.726C267.167 73.846 267.161 73.984 267.149 74.14C267.137 74.284 267.119 74.434 267.095 74.59H258.941V73.33H266.321L265.673 73.87C265.781 73.21 265.703 72.622 265.439 72.106C265.187 71.578 264.821 71.164 264.341 70.864C263.861 70.552 263.321 70.396 262.721 70.396C262.121 70.396 261.563 70.552 261.047 70.864C260.543 71.176 260.147 71.614 259.859 72.178C259.571 72.73 259.457 73.39 259.517 74.158C259.457 74.926 259.577 75.598 259.877 76.174C260.189 76.738 260.609 77.176 261.137 77.488C261.677 77.8 262.253 77.956 262.865 77.956C263.573 77.956 264.167 77.788 264.647 77.452C265.127 77.116 265.517 76.696 265.817 76.192L266.969 76.804C266.777 77.236 266.483 77.638 266.087 78.01C265.691 78.37 265.217 78.664 264.665 78.892C264.125 79.108 263.525 79.216 262.865 79.216ZM271.671 79L268.359 69.352H269.889L272.625 77.794H272.085L274.659 69.352H276.009L278.583 77.794H278.043L280.797 69.352H282.309L278.997 79H277.647L275.145 70.738H275.523L273.021 79H271.671ZM288.107 79.216C287.207 79.216 286.391 79 285.659 78.568C284.939 78.124 284.369 77.518 283.949 76.75C283.529 75.982 283.319 75.112 283.319 74.14C283.319 73.168 283.523 72.31 283.931 71.566C284.339 70.81 284.891 70.216 285.587 69.784C286.295 69.352 287.087 69.136 287.963 69.136C288.659 69.136 289.277 69.268 289.817 69.532C290.369 69.784 290.837 70.132 291.221 70.576C291.605 71.008 291.899 71.5 292.103 72.052C292.307 72.592 292.409 73.15 292.409 73.726C292.409 73.846 292.403 73.984 292.391 74.14C292.379 74.284 292.361 74.434 292.337 74.59H284.183V73.33H291.563L290.915 73.87C291.023 73.21 290.945 72.622 290.681 72.106C290.429 71.578 290.063 71.164 289.583 70.864C289.103 70.552 288.563 70.396 287.963 70.396C287.363 70.396 286.805 70.552 286.289 70.864C285.785 71.176 285.389 71.614 285.101 72.178C284.813 72.73 284.699 73.39 284.759 74.158C284.699 74.926 284.819 75.598 285.119 76.174C285.431 76.738 285.851 77.176 286.379 77.488C286.919 77.8 287.495 77.956 288.107 77.956C288.815 77.956 289.409 77.788 289.889 77.452C290.369 77.116 290.759 76.696 291.059 76.192L292.211 76.804C292.019 77.236 291.725 77.638 291.329 78.01C290.933 78.37 290.459 78.664 289.907 78.892C289.367 79.108 288.767 79.216 288.107 79.216ZM294.789 79V69.352H296.139V70.936L295.959 70.702C296.187 70.246 296.529 69.886 296.985 69.622C297.453 69.358 298.017 69.226 298.677 69.226H299.289V70.576H298.443C297.747 70.576 297.189 70.792 296.769 71.224C296.349 71.656 296.139 72.268 296.139 73.06V79H294.789ZM304.561 79.108C303.697 79.108 303.031 78.856 302.563 78.352C302.095 77.848 301.861 77.128 301.861 76.192V70.702H300.079V69.352H300.529C300.937 69.352 301.261 69.22 301.501 68.956C301.741 68.68 301.861 68.338 301.861 67.93V67.12H303.211V69.352H305.335V70.702H303.211V76.192C303.211 76.516 303.259 76.804 303.355 77.056C303.451 77.296 303.613 77.488 303.841 77.632C304.081 77.776 304.399 77.848 304.795 77.848C304.891 77.848 305.005 77.842 305.137 77.83C305.269 77.818 305.383 77.806 305.479 77.794V79C305.335 79.036 305.173 79.06 304.993 79.072C304.813 79.096 304.669 79.108 304.561 79.108ZM311.27 79.216C310.598 79.216 309.986 79.06 309.434 78.748C308.882 78.424 308.444 77.98 308.12 77.416C307.808 76.84 307.652 76.18 307.652 75.436V69.352H309.002V75.274C309.002 75.79 309.104 76.246 309.308 76.642C309.524 77.026 309.818 77.326 310.19 77.542C310.574 77.758 311.012 77.866 311.504 77.866C311.996 77.866 312.434 77.758 312.818 77.542C313.202 77.314 313.502 76.996 313.718 76.588C313.934 76.168 314.042 75.67 314.042 75.094V69.352H315.392V79H314.042V77.128L314.348 77.2C314.12 77.824 313.73 78.316 313.178 78.676C312.626 79.036 311.99 79.216 311.27 79.216ZM318.168 79V69.352H319.518V71.224L319.212 71.152C319.452 70.528 319.842 70.036 320.382 69.676C320.934 69.316 321.57 69.136 322.29 69.136C322.974 69.136 323.586 69.292 324.126 69.604C324.678 69.916 325.11 70.348 325.422 70.9C325.746 71.44 325.908 72.052 325.908 72.736V79H324.558V73.258C324.558 72.67 324.45 72.172 324.234 71.764C324.03 71.356 323.736 71.044 323.352 70.828C322.98 70.6 322.548 70.486 322.056 70.486C321.564 70.486 321.126 70.6 320.742 70.828C320.358 71.044 320.058 71.362 319.842 71.782C319.626 72.19 319.518 72.682 319.518 73.258V79H318.168ZM333.059 82.96C332.399 82.96 331.787 82.858 331.223 82.654C330.671 82.45 330.191 82.168 329.783 81.808C329.387 81.46 329.081 81.052 328.865 80.584L330.107 79.918C330.299 80.374 330.641 80.77 331.133 81.106C331.625 81.442 332.255 81.61 333.023 81.61C333.611 81.61 334.151 81.496 334.643 81.268C335.135 81.04 335.531 80.704 335.831 80.26C336.131 79.816 336.281 79.27 336.281 78.622V76.48L336.497 76.678C336.161 77.374 335.663 77.914 335.003 78.298C334.343 78.67 333.623 78.856 332.843 78.856C331.943 78.856 331.133 78.64 330.413 78.208C329.693 77.776 329.123 77.194 328.703 76.462C328.295 75.718 328.091 74.896 328.091 73.996C328.091 73.084 328.295 72.262 328.703 71.53C329.123 70.798 329.687 70.216 330.395 69.784C331.115 69.352 331.931 69.136 332.843 69.136C333.623 69.136 334.331 69.316 334.967 69.676C335.615 70.036 336.125 70.522 336.497 71.134L336.281 71.512V69.352H337.631V78.622C337.631 79.45 337.433 80.188 337.037 80.836C336.653 81.496 336.113 82.012 335.417 82.384C334.733 82.768 333.947 82.96 333.059 82.96ZM332.915 77.506C333.539 77.506 334.103 77.35 334.607 77.038C335.111 76.714 335.513 76.288 335.813 75.76C336.125 75.22 336.281 74.632 336.281 73.996C336.281 73.36 336.125 72.778 335.813 72.25C335.513 71.71 335.111 71.284 334.607 70.972C334.103 70.648 333.539 70.486 332.915 70.486C332.279 70.486 331.703 70.648 331.187 70.972C330.671 71.284 330.263 71.704 329.963 72.232C329.675 72.76 329.531 73.348 329.531 73.996C329.531 74.632 329.675 75.22 329.963 75.76C330.263 76.288 330.665 76.714 331.169 77.038C331.685 77.35 332.267 77.506 332.915 77.506Z" fill="#6A6A6A"/>
</svg>
