<svg width="20" height="20" viewBox="0 0 20 20" fill="none" xmlns="http://www.w3.org/2000/svg">
<path d="M3.24219 14.9998C2.73438 13.7107 1.875 11.3525 1.875 9.9998C1.875 5.5123 5.8332 1.8748 10 1.8748C14.1668 1.8748 18.125 5.5123 18.125 9.9998C18.125 11.3525 17.2266 13.7889 16.7578 14.9998" stroke="#1A46DA" stroke-width="1.25" stroke-linecap="round" stroke-linejoin="round"/>
<path d="M4.23336 10.5517L3.69859 10.8642C2.51773 11.5556 2.46031 13.6927 3.56656 15.6376C4.67281 17.5826 6.53023 18.599 7.71109 17.908L8.24586 17.5955C8.38779 17.5109 8.49093 17.3741 8.53315 17.2144C8.57536 17.0547 8.55328 16.8848 8.47164 16.7412L5.0775 10.781C5.03748 10.7102 4.9838 10.648 4.91957 10.598C4.85534 10.5481 4.78184 10.5114 4.70332 10.49C4.6248 10.4687 4.54283 10.4632 4.46216 10.4738C4.38148 10.4844 4.30371 10.5108 4.23336 10.5517ZM15.7654 10.5517L16.3002 10.8642C17.481 11.5552 17.54 13.6923 16.4322 15.6373C15.3244 17.5822 13.4685 18.5986 12.2877 17.9076L11.7529 17.5951C11.611 17.5105 11.5078 17.3737 11.4656 17.214C11.4234 17.0543 11.4455 16.8844 11.5271 16.7408L14.9212 10.781C14.9613 10.7102 15.0149 10.648 15.0792 10.598C15.1434 10.5481 15.2169 10.5114 15.2954 10.49C15.3739 10.4687 15.4559 10.4632 15.5366 10.4738C15.6173 10.4844 15.695 10.5108 15.7654 10.5517Z" stroke="#1A46DA" stroke-width="1.25" stroke-miterlimit="10"/>
</svg>
