<svg width="186" height="48" viewBox="0 0 186 48" fill="none" xmlns="http://www.w3.org/2000/svg">
<g opacity="0.9" clip-path="url(#clip0_126_623)">
<path d="M29.8667 28.3539V37.9927C29.8667 42.9382 26.9438 45.3818 23.3054 45.3818H21.6497C17.8069 45.3818 14.9861 42.9382 14.9861 37.9927V33.3382C14.9861 31.9224 13.7801 30.7588 12.2675 30.7588H7.89327C2.78316 30.7588 0.105469 28.0824 0.105469 24.4364V23.6994C0.105469 20.1891 2.78316 17.4351 7.89327 17.4351H12.2675C13.7597 17.4351 14.9861 16.2909 14.9861 14.8558V10.2982C14.9861 5.41091 17.8069 2.90909 21.6497 2.90909H23.3054C27.0051 2.90909 29.8667 5.39151 29.8667 10.2982V28.3733V28.3539Z" fill="#1A46DA"/>
<path d="M46.0559 31.3308C46.0559 31.4084 46.0559 31.4859 46.015 31.5441C45.9741 31.6023 45.9128 31.6411 45.7902 31.6799C45.6675 31.7187 45.504 31.7381 45.2587 31.7574C45.0339 31.7574 44.7068 31.7768 44.3184 31.7768C43.9301 31.7768 43.7257 31.7768 43.5213 31.7574C43.3169 31.7574 43.1738 31.7187 43.0511 31.6799C42.9285 31.6411 42.8467 31.5829 42.8059 31.5247C42.765 31.4665 42.7241 31.389 42.6832 31.292L41.2933 28.0144C41.1297 27.6459 40.9662 27.3162 40.8027 27.0253C40.6392 26.7344 40.4552 26.5017 40.2712 26.3077C40.0668 26.1138 39.842 25.9781 39.5967 25.8617C39.331 25.7647 39.0448 25.7065 38.7178 25.7065H37.7366V31.3114C37.7366 31.389 37.7162 31.4471 37.6549 31.5247C37.5935 31.5829 37.5118 31.6411 37.3891 31.6799C37.2665 31.7187 37.103 31.7574 36.919 31.7768C36.7146 31.7962 36.4693 31.8156 36.1423 31.8156C35.8152 31.8156 35.5904 31.8156 35.386 31.7768C35.1816 31.7381 35.0181 31.7187 34.8954 31.6799C34.7728 31.6411 34.691 31.6023 34.6501 31.5247C34.6092 31.4665 34.5684 31.389 34.5684 31.3114V17.9684C34.5684 17.6387 34.6501 17.3865 34.8341 17.2508C35.018 17.115 35.2429 17.0374 35.5086 17.0374H39.5149C39.9238 17.0374 40.2508 17.0374 40.5165 17.0568C40.7823 17.0568 41.0275 17.0956 41.2319 17.115C41.8452 17.1926 42.4175 17.3477 42.9081 17.5417C43.3986 17.755 43.8279 18.0071 44.1754 18.3368C44.5228 18.6665 44.7886 19.0544 44.9725 19.5005C45.1565 19.9465 45.2383 20.4702 45.2383 21.052C45.2383 21.6338 45.1769 22.0023 45.0339 22.3902C44.9112 22.7974 44.7068 23.1659 44.4615 23.4762C44.1958 23.7865 43.8892 24.0774 43.5213 24.3102C43.1533 24.5429 42.7241 24.7368 42.2335 24.8726C42.4584 24.9696 42.6832 25.1053 42.8876 25.2605C43.092 25.4156 43.276 25.5902 43.4599 25.8035C43.6439 26.0168 43.8074 26.269 43.971 26.5405C44.1345 26.812 44.2776 27.1223 44.4411 27.4714L45.7493 30.3611C45.8719 30.652 45.9537 30.8653 45.9946 31.0011C46.0354 31.1368 46.0559 31.2338 46.0559 31.3114V31.3308ZM41.9882 21.3623C41.9882 20.8774 41.8656 20.4702 41.6407 20.1405C41.4159 19.8108 41.0275 19.5781 40.4961 19.4423C40.3326 19.4035 40.1486 19.3647 39.9442 19.3453C39.7398 19.3259 39.4536 19.3065 39.1061 19.3065H37.6957V23.4762H39.3105C39.7602 23.4762 40.1486 23.4181 40.4756 23.3211C40.8027 23.2241 41.0889 23.069 41.3137 22.8944C41.5385 22.7005 41.7021 22.4871 41.8247 22.235C41.9269 21.9829 41.9882 21.692 41.9882 21.3623Z" fill="#171717"/>
<path d="M60.8126 31.3116C60.8126 31.3892 60.7921 31.4474 60.7308 31.525C60.6695 31.5831 60.5877 31.6413 60.4651 31.6801C60.3424 31.7189 60.1789 31.7577 59.995 31.7771C59.7906 31.7965 59.5453 31.8159 59.2387 31.8159C58.9321 31.8159 58.6663 31.8159 58.4619 31.7771C58.2575 31.7383 58.094 31.7189 57.9918 31.6801C57.8692 31.6413 57.7874 31.6025 57.7465 31.525C57.6852 31.4668 57.6648 31.3892 57.6648 31.3116V25.3771H51.8597V31.3116C51.8597 31.3892 51.8392 31.4474 51.7779 31.525C51.737 31.5831 51.6553 31.6413 51.5326 31.6801C51.41 31.7189 51.2465 31.7577 51.0625 31.7771C50.8581 31.7965 50.6128 31.8159 50.2858 31.8159C49.9587 31.8159 49.7339 31.8159 49.5295 31.7771C49.3251 31.7383 49.1615 31.7189 49.0389 31.6801C48.9163 31.6413 48.8345 31.6025 48.7732 31.525C48.7118 31.4668 48.6914 31.3892 48.6914 31.3116V17.4256C48.6914 17.348 48.7118 17.2898 48.7732 17.2122C48.8345 17.1541 48.9163 17.0959 49.0389 17.0571C49.1615 17.0183 49.3251 16.9795 49.5295 16.9601C49.7339 16.9407 49.9792 16.9213 50.2858 16.9213C50.5924 16.9213 50.8581 16.9213 51.0625 16.9601C51.2669 16.9795 51.4304 17.0183 51.5326 17.0571C51.6553 17.0959 51.737 17.1347 51.7779 17.2122C51.8188 17.2704 51.8597 17.348 51.8597 17.4256V22.8171H57.6648V17.4256C57.6648 17.348 57.6852 17.2898 57.7465 17.2122C57.8078 17.1541 57.8896 17.0959 57.9918 17.0571C58.1144 17.0183 58.2575 16.9795 58.4619 16.9601C58.6663 16.9407 58.9321 16.9213 59.2387 16.9213C59.5453 16.9213 59.7906 16.9213 59.995 16.9601C60.1994 16.9795 60.3629 17.0183 60.4651 17.0571C60.5877 17.0959 60.6695 17.1347 60.7308 17.2122C60.7921 17.2704 60.8126 17.348 60.8126 17.4256V31.3116Z" fill="#171717"/>
<path d="M67.7024 31.3116C67.7024 31.3892 67.6819 31.4474 67.6206 31.525C67.5593 31.5831 67.4775 31.6413 67.3549 31.6801C67.2322 31.7189 67.0687 31.7577 66.8848 31.7771C66.6804 31.7965 66.4351 31.8159 66.108 31.8159C65.781 31.8159 65.5561 31.8159 65.3517 31.7771C65.1473 31.7383 64.9838 31.7189 64.8612 31.6801C64.7385 31.6413 64.6568 31.6025 64.5954 31.525C64.5341 31.4668 64.5137 31.3892 64.5137 31.3116V17.4256C64.5137 17.348 64.5341 17.2898 64.5954 17.2122C64.6568 17.1541 64.7385 17.0959 64.8612 17.0571C64.9838 17.0183 65.1473 16.9795 65.3517 16.9601C65.5561 16.9407 65.8014 16.9213 66.108 16.9213C66.4146 16.9213 66.6804 16.9213 66.8848 16.9601C67.0892 16.9795 67.2527 17.0183 67.3549 17.0571C67.4775 17.0959 67.5593 17.1347 67.6206 17.2122C67.6819 17.2704 67.7024 17.348 67.7024 17.4256V31.3116Z" fill="#171717"/>
<path d="M84.1991 30.6713C84.1991 30.8458 84.1582 31.001 84.0969 31.1367C84.0356 31.2725 83.9538 31.3889 83.8312 31.4858C83.7085 31.5828 83.5859 31.641 83.4428 31.6798C83.2997 31.7186 83.1362 31.738 82.9931 31.738H81.644C81.3579 31.738 81.133 31.7186 80.9286 31.6604C80.7242 31.6022 80.5403 31.5052 80.3563 31.3695C80.1928 31.2337 80.0088 31.0398 79.8657 30.8071C79.7022 30.5743 79.5182 30.264 79.3343 29.8761L75.471 23.0107C75.2462 22.6034 75.0213 22.1574 74.7965 21.6919C74.5717 21.2264 74.3672 20.761 74.1833 20.3149H74.1628C74.2037 20.858 74.2242 21.401 74.2446 21.944C74.2446 22.4871 74.265 23.0495 74.265 23.6119V31.3113C74.265 31.3889 74.2446 31.4471 74.2037 31.5246C74.1628 31.5828 74.0811 31.641 73.9789 31.6798C73.8767 31.7186 73.7336 31.7574 73.5496 31.7767C73.3657 31.7961 73.1204 31.8155 72.8342 31.8155C72.5481 31.8155 72.3232 31.8155 72.1392 31.7767C71.9553 31.7574 71.8122 31.7186 71.71 31.6798C71.6078 31.641 71.526 31.5828 71.4851 31.5246C71.4443 31.4664 71.4238 31.3889 71.4238 31.3113V18.104C71.4238 17.7549 71.526 17.4834 71.7509 17.3089C71.9757 17.1343 72.2414 17.0374 72.5685 17.0374H74.265C74.5717 17.0374 74.8169 17.0567 75.0418 17.1149C75.2462 17.1731 75.4302 17.2507 75.5937 17.3671C75.7572 17.4834 75.9207 17.6386 76.0638 17.8325C76.2069 18.0264 76.35 18.2786 76.5135 18.5695L79.5387 23.9416C79.7226 24.2713 79.8862 24.5816 80.0497 24.9113C80.2132 25.2216 80.3767 25.5319 80.5403 25.8616C80.7038 26.1719 80.8469 26.4822 81.0104 26.7925C81.1535 27.1028 81.317 27.3937 81.4601 27.704C81.4396 27.1804 81.4192 26.618 81.3988 26.0361C81.3988 25.4543 81.3988 24.9113 81.3988 24.3877V17.4834C81.3988 17.4058 81.4192 17.3477 81.4805 17.2701C81.5214 17.2119 81.6032 17.1537 81.7258 17.1149C81.828 17.0761 81.9915 17.0374 82.1755 17.018C82.3595 17.018 82.6047 16.9986 82.8909 16.9986C83.1771 16.9986 83.3815 16.9986 83.5654 17.018C83.7494 17.018 83.8925 17.0761 83.9947 17.1149C84.0969 17.1537 84.1582 17.2119 84.1991 17.2701C84.24 17.3283 84.2604 17.4058 84.2604 17.4834V30.6907L84.1991 30.6713Z" fill="#171717"/>
<path d="M101.858 24.1939C101.858 25.4158 101.694 26.5018 101.388 27.4715C101.061 28.4412 100.591 29.2558 99.9569 29.9151C99.3233 30.5939 98.5465 31.0982 97.6063 31.4473C96.666 31.7964 95.6031 31.9709 94.3767 31.9709C93.1502 31.9709 92.1282 31.8157 91.2288 31.5248C90.3295 31.2339 89.5732 30.7685 88.9804 30.1479C88.3876 29.5273 87.9379 28.7515 87.6313 27.8012C87.3247 26.8509 87.1816 25.7261 87.1816 24.4461C87.1816 23.1661 87.3452 22.1964 87.6518 21.2267C87.9788 20.2764 88.4489 19.4618 89.0826 18.8024C89.7163 18.143 90.493 17.6194 91.4332 17.2703C92.3735 16.9212 93.4364 16.7273 94.6628 16.7273C95.8893 16.7273 96.8704 16.8824 97.7698 17.1733C98.6692 17.4642 99.4255 17.9297 100.018 18.5309C100.611 19.1515 101.081 19.9273 101.388 20.8582C101.694 21.7891 101.858 22.8945 101.858 24.1745V24.1939ZM98.5465 24.3491C98.5465 23.5733 98.4852 22.8751 98.3626 22.2351C98.2399 21.5951 98.0151 21.0521 97.7085 20.6061C97.4019 20.16 96.993 19.8109 96.482 19.5588C95.971 19.3067 95.3374 19.1903 94.5606 19.1903C93.7839 19.1903 93.1298 19.3261 92.6188 19.5976C92.1078 19.8691 91.6785 20.2376 91.3515 20.703C91.0244 21.1685 90.7996 21.7115 90.677 22.3127C90.5543 22.9333 90.4726 23.5927 90.4726 24.2715C90.4726 24.9503 90.5339 25.8036 90.6565 26.4436C90.7792 27.0836 91.004 27.6267 91.3106 28.0921C91.6172 28.5382 92.026 28.8873 92.537 29.1394C93.048 29.3721 93.6817 29.4885 94.4584 29.4885C95.2352 29.4885 95.8893 29.3527 96.4003 29.0812C96.9113 28.8097 97.3405 28.4412 97.6676 27.9757C97.9946 27.5103 98.2195 26.9673 98.3421 26.3273C98.4648 25.6873 98.5465 25.0279 98.5465 24.3297V24.3491Z" fill="#171717"/>
<path d="M122.443 31.4861C122.443 31.5249 122.443 31.5636 122.402 31.6024C122.381 31.6412 122.341 31.68 122.279 31.6994C122.218 31.7188 122.136 31.7382 122.054 31.7576C121.973 31.7576 121.85 31.777 121.707 31.777C121.564 31.777 121.462 31.777 121.38 31.7576C121.278 31.7576 121.216 31.7188 121.155 31.6994C121.094 31.68 121.053 31.6412 121.032 31.6024C121.012 31.5636 120.991 31.5249 120.991 31.4861V18.2206H120.971L114.88 31.5636C114.88 31.6024 114.839 31.6218 114.798 31.6412C114.757 31.6606 114.716 31.6994 114.675 31.7188C114.614 31.7188 114.553 31.7576 114.471 31.7576C114.389 31.7576 114.307 31.7576 114.205 31.7576C114.103 31.7576 114.001 31.7576 113.919 31.7576C113.837 31.7576 113.776 31.7382 113.715 31.7188C113.653 31.7188 113.612 31.68 113.592 31.6412C113.551 31.6218 113.531 31.583 113.531 31.5636L107.726 18.2206V31.4861C107.726 31.5249 107.726 31.5636 107.685 31.6024C107.664 31.6412 107.623 31.68 107.562 31.6994C107.501 31.7188 107.419 31.7382 107.337 31.7576C107.255 31.7576 107.133 31.777 106.969 31.777C106.806 31.777 106.724 31.777 106.622 31.7576C106.54 31.7576 106.458 31.7188 106.397 31.6994C106.336 31.68 106.295 31.6412 106.274 31.6024C106.274 31.5636 106.254 31.5249 106.254 31.4861V17.7164C106.254 17.4449 106.336 17.2509 106.479 17.1539C106.622 17.057 106.785 16.9988 106.928 16.9988H107.726C107.93 16.9988 108.094 17.0182 108.257 17.057C108.4 17.0958 108.543 17.1539 108.666 17.2315C108.789 17.3091 108.87 17.4061 108.952 17.5224C109.034 17.6388 109.095 17.7746 109.177 17.9103L114.287 29.5855H114.348L119.683 17.9491C119.765 17.7746 119.847 17.6194 119.949 17.4836C120.031 17.3673 120.133 17.2509 120.235 17.1733C120.337 17.0958 120.44 17.0376 120.562 17.0182C120.685 16.9794 120.807 16.9794 120.93 16.9794H121.809C121.891 16.9794 121.952 16.9794 122.034 17.0182C122.116 17.0376 122.177 17.0764 122.259 17.1346C122.32 17.1927 122.381 17.2703 122.422 17.3479C122.463 17.4449 122.484 17.5612 122.484 17.697V31.4667L122.443 31.4861Z" fill="#171717"/>
<path d="M135.628 31.0981C135.628 31.1951 135.628 31.2921 135.607 31.3503C135.607 31.4278 135.567 31.486 135.526 31.5442C135.485 31.6024 135.444 31.6412 135.403 31.6606C135.362 31.68 135.301 31.6994 135.239 31.6994H127.983C127.84 31.6994 127.697 31.6412 127.533 31.5442C127.39 31.4472 127.309 31.2533 127.309 30.9818V17.7163C127.309 17.4448 127.39 17.2509 127.533 17.1539C127.677 17.0569 127.84 16.9987 127.983 16.9987H135.137C135.199 16.9987 135.239 16.9987 135.301 17.0375C135.342 17.0569 135.383 17.0957 135.423 17.1539C135.464 17.2121 135.485 17.2703 135.505 17.3478C135.505 17.4254 135.526 17.5224 135.526 17.6194C135.526 17.7163 135.526 17.8133 135.505 17.8715C135.505 17.9491 135.464 18.0072 135.423 18.0654C135.383 18.1236 135.342 18.143 135.301 18.1818C135.26 18.2012 135.199 18.2206 135.137 18.2206H128.78V23.3987H134.258C134.32 23.3987 134.381 23.3987 134.422 23.4375C134.463 23.4569 134.504 23.4957 134.544 23.5539C134.585 23.6121 134.606 23.6703 134.626 23.7478C134.626 23.8254 134.647 23.9224 134.647 24.0194C134.647 24.1163 134.647 24.1939 134.626 24.2715C134.626 24.3491 134.585 24.4072 134.544 24.446C134.504 24.4848 134.463 24.5236 134.422 24.543C134.381 24.5624 134.32 24.5818 134.258 24.5818H128.78V30.4387H135.239C135.301 30.4387 135.342 30.4387 135.403 30.4775C135.444 30.4969 135.485 30.5357 135.526 30.5939C135.567 30.6521 135.587 30.7103 135.607 30.7878C135.607 30.8654 135.628 30.9624 135.628 31.0594V31.0981Z" fill="#171717"/>
<path d="M151.04 24.1549C151.04 25.3961 150.876 26.4822 150.549 27.4131C150.222 28.3634 149.731 29.1392 149.098 29.7792C148.464 30.4192 147.667 30.904 146.727 31.2143C145.786 31.544 144.662 31.6992 143.374 31.6992H140.329C140.186 31.6992 140.043 31.641 139.879 31.544C139.736 31.4471 139.654 31.2531 139.654 30.9816V17.7161C139.654 17.4446 139.736 17.2507 139.879 17.1537C140.022 17.0567 140.186 16.9986 140.329 16.9986H143.579C144.887 16.9986 146.011 17.1731 146.911 17.5028C147.81 17.8519 148.566 18.3174 149.18 18.9574C149.793 19.5974 150.242 20.3343 150.569 21.207C150.897 22.0798 151.04 23.0495 151.04 24.1355V24.1549ZM149.466 24.2131C149.466 23.3598 149.343 22.5646 149.118 21.8277C148.893 21.0907 148.546 20.4701 148.055 19.9271C147.585 19.4034 146.972 18.9767 146.257 18.6858C145.521 18.3949 144.601 18.2398 143.477 18.2398H141.085V30.458H143.477C144.54 30.458 145.418 30.3416 146.154 30.0895C146.89 29.8374 147.503 29.4689 147.974 28.9452C148.464 28.4216 148.832 27.7816 149.077 27.0058C149.323 26.2301 149.445 25.2798 149.445 24.2131H149.466Z" fill="#171717"/>
<path d="M156.333 31.486C156.333 31.5248 156.333 31.5636 156.292 31.6023C156.272 31.6411 156.231 31.6799 156.17 31.6993C156.108 31.7187 156.047 31.7381 155.945 31.7575C155.863 31.7575 155.74 31.7769 155.597 31.7769C155.454 31.7769 155.352 31.7769 155.25 31.7575C155.147 31.7575 155.086 31.7187 155.025 31.6993C154.964 31.6799 154.923 31.6411 154.902 31.6023C154.882 31.5636 154.861 31.5248 154.861 31.486V17.2314C154.861 17.1926 154.861 17.1539 154.902 17.1151C154.923 17.0763 154.984 17.0375 155.025 17.0181C155.066 16.9987 155.168 16.9793 155.25 16.9599C155.331 16.9599 155.454 16.9405 155.577 16.9405C155.699 16.9405 155.842 16.9405 155.924 16.9599C156.006 16.9599 156.088 16.9987 156.149 17.0181C156.21 17.0375 156.251 17.0763 156.272 17.1151C156.292 17.1539 156.313 17.1926 156.313 17.2314V31.486H156.333Z" fill="#171717"/>
<path d="M171.353 29.7211C171.353 29.7987 171.353 29.8762 171.353 29.9538C171.353 30.0314 171.353 30.0896 171.312 30.1284C171.312 30.1866 171.271 30.2253 171.251 30.2835C171.23 30.3223 171.169 30.3805 171.087 30.4581C171.006 30.5356 170.842 30.652 170.597 30.8072C170.331 30.9623 170.024 31.1369 169.636 31.292C169.248 31.4472 168.798 31.5829 168.307 31.6993C167.817 31.8156 167.245 31.8738 166.652 31.8738C165.671 31.8738 164.792 31.7187 164.015 31.389C163.218 31.0593 162.543 30.5938 161.991 29.9732C161.439 29.3526 161.01 28.5962 160.704 27.6847C160.397 26.7732 160.254 25.7453 160.254 24.5623C160.254 23.3793 160.417 22.2932 160.724 21.3429C161.051 20.3926 161.501 19.5781 162.073 18.9187C162.645 18.2593 163.34 17.755 164.158 17.3866C164.976 17.0375 165.855 16.8629 166.856 16.8629C167.858 16.8629 167.776 16.9017 168.205 16.9793C168.634 17.0569 169.043 17.1732 169.411 17.2896C169.779 17.4253 170.106 17.5611 170.392 17.7356C170.679 17.9102 170.883 18.0459 170.985 18.1429C171.087 18.2399 171.169 18.3175 171.19 18.3562C171.21 18.395 171.23 18.4532 171.251 18.5114C171.251 18.5696 171.271 18.6278 171.292 18.7053C171.292 18.7829 171.292 18.8605 171.292 18.9575C171.292 19.0544 171.292 19.1514 171.292 19.229C171.292 19.3066 171.251 19.3841 171.23 19.4423C171.21 19.5005 171.169 19.5393 171.128 19.5781C171.087 19.6169 171.046 19.6169 170.985 19.6169C170.883 19.6169 170.719 19.5393 170.515 19.3841C170.311 19.229 170.045 19.0544 169.718 18.8605C169.391 18.6666 168.982 18.492 168.512 18.3369C168.042 18.1817 167.469 18.1041 166.795 18.1041C166.12 18.1041 165.405 18.2399 164.792 18.5114C164.178 18.7829 163.667 19.1902 163.238 19.7332C162.809 20.2762 162.461 20.9356 162.216 21.7308C161.971 22.5259 161.848 23.4181 161.848 24.4459C161.848 25.4738 161.95 26.2884 162.175 27.0447C162.4 27.8011 162.727 28.4411 163.136 28.9647C163.565 29.4884 164.076 29.8762 164.71 30.1478C165.344 30.4193 166.039 30.555 166.836 30.555C167.633 30.555 168.042 30.4775 168.532 30.3223C169.023 30.1672 169.432 29.9926 169.779 29.7987C170.127 29.6047 170.413 29.4302 170.617 29.275C170.842 29.1199 171.006 29.0423 171.128 29.0423C171.251 29.0423 171.21 29.0423 171.251 29.0617C171.292 29.0617 171.312 29.1199 171.333 29.1587C171.333 29.2169 171.374 29.275 171.374 29.3526C171.374 29.4302 171.374 29.5466 171.374 29.6629L171.353 29.7211Z" fill="#171717"/>
<path d="M185.686 31.2533C185.727 31.3697 185.748 31.4667 185.748 31.5248C185.748 31.6024 185.707 31.6606 185.666 31.68C185.605 31.7188 185.543 31.7382 185.421 31.7576C185.298 31.777 185.175 31.7576 185.012 31.7576C184.848 31.7576 184.705 31.7576 184.603 31.7576C184.501 31.7576 184.419 31.7382 184.378 31.6994C184.317 31.68 184.276 31.6412 184.255 31.6024C184.235 31.5636 184.194 31.5248 184.174 31.4667L182.682 27.5491H175.875L174.444 31.4473C174.444 31.5054 174.403 31.5442 174.362 31.583C174.321 31.6218 174.281 31.6606 174.24 31.68C174.178 31.6994 174.097 31.7188 174.015 31.7382C173.913 31.7382 173.79 31.7576 173.647 31.7576C173.504 31.7576 173.34 31.7576 173.218 31.7382C173.115 31.7382 173.034 31.6994 172.972 31.6606C172.911 31.6218 172.891 31.5636 172.891 31.5054C172.891 31.4279 172.891 31.3503 172.952 31.2339L178.369 17.2509C178.389 17.1927 178.43 17.1345 178.471 17.0957C178.512 17.057 178.573 17.0182 178.655 16.9988C178.737 16.9794 178.818 16.96 178.921 16.9406C179.023 16.9212 179.145 16.9406 179.288 16.9406C179.432 16.9406 179.554 16.9406 179.656 16.9406C179.759 16.9406 179.861 16.96 179.922 16.9988C180.004 17.0182 180.065 17.057 180.106 17.0957C180.147 17.1345 180.188 17.1927 180.208 17.2509L185.625 31.2339L185.686 31.2533ZM179.248 18.5115L176.325 26.4242H182.252L179.268 18.5115H179.248Z" fill="#171717"/>
</g>
<defs>
<clipPath id="clip0_126_623">
<rect width="185.455" height="48" fill="white"/>
</clipPath>
</defs>
</svg>
