<svg width="512" height="730" viewBox="0 0 512 730" fill="none" xmlns="http://www.w3.org/2000/svg">
<path d="M0 437.333V603C0 688 50.2857 730 112.879 730H141.363C207.473 730 256 688 256 603V523C256 498.667 276.747 478.667 302.769 478.667H378.022C465.934 478.667 512 432.667 512 370V357.333C512 297 465.934 249.667 378.022 249.667L302.769 249.667C277.099 249.667 256 230 256 205.333V127C256 43 207.473 0 141.363 0L112.879 0C49.2308 0 0 42.6667 0 127V437.667V437.333Z" fill="#DEEBFD" fill-opacity="0.5"/>
</svg>
