<svg width="71" height="71" viewBox="0 0 71 71" fill="none" xmlns="http://www.w3.org/2000/svg">
<g filter="url(#filter0_d_178_3922)">
<path d="M28.0879 42.0486V23.5132C28.0883 23.2813 28.1589 23.0537 28.2923 22.8544C28.4257 22.6551 28.6169 22.4913 28.8459 22.3803C29.075 22.2692 29.3334 22.215 29.5941 22.2232C29.8549 22.2315 30.1083 22.3019 30.3279 22.4271L46.549 31.6923C46.7544 31.8092 46.9234 31.9703 47.0404 32.1605C47.1575 32.3507 47.2188 32.5641 47.2188 32.7809C47.2188 32.9977 47.1575 33.2111 47.0404 33.4013C46.9234 33.5916 46.7544 33.7526 46.549 33.8696L30.3279 43.1373C30.1083 43.2625 29.8549 43.3329 29.5941 43.3412C29.3334 43.3494 29.075 43.2952 28.8459 43.1841C28.6169 43.0731 28.4257 42.9093 28.2923 42.71C28.1589 42.5107 28.0883 42.2831 28.0879 42.0512V42.0486Z" fill="white" fill-opacity="0.9"/>
<path d="M3.19922 32C3.19922 14.3273 17.5265 0 35.1992 0C52.8719 0 67.1992 14.3273 67.1992 32C67.1992 49.6727 52.8719 64 35.1992 64C17.5265 64 3.19922 49.6727 3.19922 32ZM35.1992 4.36364C27.8696 4.36364 20.8402 7.27532 15.6574 12.4581C10.4745 17.641 7.56286 24.6704 7.56286 32C7.56286 39.3296 10.4745 46.359 15.6574 51.5419C20.8402 56.7247 27.8696 59.6364 35.1992 59.6364C42.5288 59.6364 49.5583 56.7247 54.7411 51.5419C59.9239 46.359 62.8356 39.3296 62.8356 32C62.8356 24.6704 59.9239 17.641 54.7411 12.4581C49.5583 7.27532 42.5288 4.36364 35.1992 4.36364Z" fill="white" fill-opacity="0.9"/>
</g>
<defs>
<filter id="filter0_d_178_3922" x="-0.000781536" y="0" width="70.4" height="70.4" filterUnits="userSpaceOnUse" color-interpolation-filters="sRGB">
<feFlood flood-opacity="0" result="BackgroundImageFix"/>
<feColorMatrix in="SourceAlpha" type="matrix" values="0 0 0 0 0 0 0 0 0 0 0 0 0 0 0 0 0 0 127 0" result="hardAlpha"/>
<feOffset dy="3.2"/>
<feGaussianBlur stdDeviation="1.6"/>
<feComposite in2="hardAlpha" operator="out"/>
<feColorMatrix type="matrix" values="0 0 0 0 0 0 0 0 0 0 0 0 0 0 0 0 0 0 0.12 0"/>
<feBlend mode="normal" in2="BackgroundImageFix" result="effect1_dropShadow_178_3922"/>
<feBlend mode="normal" in="SourceGraphic" in2="effect1_dropShadow_178_3922" result="shape"/>
</filter>
</defs>
</svg>
