<svg width="136" height="24" viewBox="0 0 136 24" fill="none" xmlns="http://www.w3.org/2000/svg">
<path d="M11.5259 1.41568C11.6782 0.960727 12.3218 0.960728 12.4741 1.41568L14.6376 7.87581C14.7054 8.07807 14.894 8.21509 15.1073 8.21701L21.9198 8.27835C22.3995 8.28267 22.5984 8.89468 22.2128 9.18018L16.7374 13.2341C16.566 13.361 16.4939 13.5827 16.558 13.7862L18.6049 20.2842C18.749 20.7418 18.2284 21.1201 17.8377 20.8416L12.2902 16.8869C12.1166 16.7631 11.8834 16.7631 11.7098 16.8869L6.16226 20.8416C5.77158 21.1201 5.25098 20.7418 5.39512 20.2842L7.44197 13.7862C7.50605 13.5827 7.43402 13.361 7.26259 13.2341L1.78721 9.18018C1.4016 8.89468 1.60046 8.28267 2.08023 8.27835L8.89274 8.21701C9.10603 8.21509 9.29462 8.07807 9.36236 7.87581L11.5259 1.41568Z" fill="#FFC107"/>
<path d="M39.5259 1.41568C39.6782 0.960727 40.3218 0.960728 40.4741 1.41568L42.6376 7.87581C42.7054 8.07807 42.894 8.21509 43.1073 8.21701L49.9198 8.27835C50.3995 8.28267 50.5984 8.89468 50.2128 9.18018L44.7374 13.2341C44.566 13.361 44.4939 13.5827 44.558 13.7862L46.6049 20.2842C46.749 20.7418 46.2284 21.1201 45.8377 20.8416L40.2902 16.8869C40.1166 16.7631 39.8834 16.7631 39.7098 16.8869L34.1623 20.8416C33.7716 21.1201 33.251 20.7418 33.3951 20.2842L35.442 13.7862C35.5061 13.5827 35.434 13.361 35.2626 13.2341L29.7872 9.18018C29.4016 8.89468 29.6005 8.28267 30.0802 8.27835L36.8927 8.21701C37.106 8.21509 37.2946 8.07807 37.3624 7.87581L39.5259 1.41568Z" fill="#FFC107"/>
<path d="M67.5259 1.41568C67.6782 0.960727 68.3218 0.960728 68.4741 1.41568L70.6376 7.87581C70.7054 8.07807 70.894 8.21509 71.1073 8.21701L77.9198 8.27835C78.3995 8.28267 78.5984 8.89468 78.2128 9.18018L72.7374 13.2341C72.566 13.361 72.4939 13.5827 72.558 13.7862L74.6049 20.2842C74.749 20.7418 74.2284 21.1201 73.8377 20.8416L68.2902 16.8869C68.1166 16.7631 67.8834 16.7631 67.7098 16.8869L62.1623 20.8416C61.7716 21.1201 61.251 20.7418 61.3951 20.2842L63.442 13.7862C63.5061 13.5827 63.434 13.361 63.2626 13.2341L57.7872 9.18018C57.4016 8.89468 57.6005 8.28267 58.0802 8.27835L64.8927 8.21701C65.106 8.21509 65.2946 8.07807 65.3624 7.87581L67.5259 1.41568Z" fill="#FFC107"/>
<path d="M95.5259 1.41568C95.6782 0.960727 96.3218 0.960728 96.4741 1.41568L98.6376 7.87581C98.7054 8.07807 98.894 8.21509 99.1073 8.21701L105.92 8.27835C106.4 8.28267 106.598 8.89468 106.213 9.18018L100.737 13.2341C100.566 13.361 100.494 13.5827 100.558 13.7862L102.605 20.2842C102.749 20.7418 102.228 21.1201 101.838 20.8416L96.2902 16.8869C96.1166 16.7631 95.8834 16.7631 95.7098 16.8869L90.1623 20.8416C89.7716 21.1201 89.251 20.7418 89.3951 20.2842L91.442 13.7862C91.5061 13.5827 91.434 13.361 91.2626 13.2341L85.7872 9.18018C85.4016 8.89468 85.6005 8.28267 86.0802 8.27835L92.8927 8.21701C93.106 8.21509 93.2946 8.07807 93.3624 7.87581L95.5259 1.41568Z" fill="#FFC107"/>
<path d="M123.526 1.41568C123.678 0.960727 124.322 0.960728 124.474 1.41568L126.638 7.87581C126.705 8.07807 126.894 8.21509 127.107 8.21701L133.92 8.27835C134.4 8.28267 134.598 8.89468 134.213 9.18018L128.737 13.2341C128.566 13.361 128.494 13.5827 128.558 13.7862L130.605 20.2842C130.749 20.7418 130.228 21.1201 129.838 20.8416L124.29 16.8869C124.117 16.7631 123.883 16.7631 123.71 16.8869L118.162 20.8416C117.772 21.1201 117.251 20.7418 117.395 20.2842L119.442 13.7862C119.506 13.5827 119.434 13.361 119.263 13.2341L113.787 9.18018C113.402 8.89468 113.6 8.28267 114.08 8.27835L120.893 8.21701C121.106 8.21509 121.295 8.07807 121.362 7.87581L123.526 1.41568Z" fill="#FFC107"/>
</svg>
