<svg width="40" height="40" viewBox="0 0 40 40" fill="none" xmlns="http://www.w3.org/2000/svg">
<rect width="40" height="40" rx="20" fill="#5D6DBD"/>
<path d="M25.4966 18.2898H23.3716C23.311 17.9413 23.1993 17.6326 23.0364 17.3636C22.8735 17.0909 22.6709 16.8598 22.4284 16.6705C22.186 16.4811 21.9095 16.339 21.5989 16.2443C21.2921 16.1458 20.9606 16.0966 20.6046 16.0966C19.972 16.0966 19.4114 16.2557 18.9228 16.5739C18.4341 16.8883 18.0516 17.3504 17.775 17.9602C17.4985 18.5663 17.3603 19.3068 17.3603 20.1818C17.3603 21.072 17.4985 21.822 17.775 22.4318C18.0553 23.0379 18.4379 23.4962 18.9228 23.8068C19.4114 24.1136 19.9701 24.267 20.5989 24.267C20.9474 24.267 21.2731 24.2216 21.5762 24.1307C21.883 24.036 22.1576 23.8977 22.4 23.7159C22.6462 23.5341 22.8527 23.3106 23.0194 23.0455C23.1898 22.7803 23.3072 22.4773 23.3716 22.1364L25.4966 22.1477C25.4171 22.7008 25.2447 23.2197 24.9796 23.7045C24.7182 24.1894 24.3754 24.6174 23.9512 24.9886C23.5269 25.3561 23.0307 25.6439 22.4625 25.8523C21.8944 26.0568 21.2637 26.1591 20.5705 26.1591C19.5478 26.1591 18.6349 25.9223 17.8319 25.4489C17.0288 24.9754 16.3962 24.2917 15.9341 23.3977C15.472 22.5038 15.2409 21.4318 15.2409 20.1818C15.2409 18.928 15.4739 17.8561 15.9398 16.9659C16.4057 16.072 17.0402 15.3883 17.8432 14.9148C18.6462 14.4413 19.5553 14.2045 20.5705 14.2045C21.2182 14.2045 21.8205 14.2955 22.3773 14.4773C22.9341 14.6591 23.4303 14.9261 23.8659 15.2784C24.3016 15.6269 24.6595 16.0549 24.9398 16.5625C25.2239 17.0663 25.4095 17.642 25.4966 18.2898Z" fill="white"/>
</svg>
