<svg width="40" height="40" viewBox="0 0 40 40" fill="none" xmlns="http://www.w3.org/2000/svg">
<rect width="40" height="40" rx="20" fill="#811EA1"/>
<path d="M20.7543 14.3636H22.8452V22.5455C22.8414 23.2955 22.6823 23.9413 22.3679 24.483C22.0535 25.0208 21.6141 25.4356 21.0497 25.7273C20.4891 26.0152 19.8357 26.1591 19.0895 26.1591C18.4077 26.1591 17.794 26.0379 17.2486 25.7955C16.7069 25.5492 16.277 25.1856 15.9588 24.7045C15.6406 24.2235 15.4815 23.625 15.4815 22.9091H17.5781C17.5819 23.2235 17.6501 23.4943 17.7827 23.7216C17.919 23.9489 18.1065 24.1231 18.3452 24.2443C18.5838 24.3655 18.8584 24.4261 19.169 24.4261C19.5062 24.4261 19.7921 24.3561 20.027 24.2159C20.2618 24.072 20.4399 23.8598 20.5611 23.5795C20.6861 23.2992 20.7505 22.9545 20.7543 22.5455V14.3636Z" fill="white"/>
</svg>
